# xmcd
# Track frame offsets:
# 150
# 16386
# 28821
# 46001
# 66489
# 83609
# 102739
# 129609
# 155089
# 171724
# 196292
# 205514
# 222242
#
# Disc length: 3368 seconds
# Revision: 0
# Processed by: cddbd v1.5.2PL0 Copyright (c) Steve Scherf et al.
# Submitted via: VisiTrax 2.10.0.248 - For more info visit www.synapsa.com
#
DISCID=bd0d260d
DTITLE=James Harman - Side Dishes
DYEAR=2003
DGENRE=Blues
TTITLE0=( I Got ) So Many Womens
TTITLE1=Jump My Baby
TTITLE2=Won´t Be Going´Again
TTITLE3=Just As Well To Kill Me
TTITLE4=It´s Alright Now
TTITLE5=Swamp Night
TTITLE6=My Little Girl
TTITLE7=Thee Way Party
TTITLE8=Leavin´For Memphis
TTITLE9=Decisions
TTITLE10=To Much Family
TTITLE11=Crapshoot
TTITLE12=Lonesome Moon Trance
EXTD=
EXTT0=
EXTT1=
EXTT2=
EXTT3=
EXTT4=
EXTT5=
EXTT6=
EXTT7=
EXTT8=
EXTT9=
EXTT10=
EXTT11=
EXTT12=
PLAYORDER=
